<mxfile host="app.diagrams.net" agent="Mozilla/5.0 (Windows NT 10.0; Win64; x64) AppleWebKit/537.36 (KHTML, like Gecko) Chrome/128.0.0.0 Safari/537.36 OPR/114.0.0.0" version="24.8.4">
  <diagram name="PÃ¡gina-1" id="1S3nL9nC6W6zaHzURT9m">
    <mxGraphModel dx="1779" dy="534" grid="1" gridSize="10" guides="1" tooltips="1" connect="1" arrows="1" fold="1" page="1" pageScale="1" pageWidth="827" pageHeight="1169" math="0" shadow="0">
      <root>
        <mxCell id="0" />
        <mxCell id="1" parent="0" />
        <mxCell id="3jvAYhcehoFHcsE9BArX-1" value="AWS Cloud" style="sketch=0;outlineConnect=0;gradientColor=none;html=1;whiteSpace=wrap;fontSize=12;fontStyle=0;shape=mxgraph.aws4.group;grIcon=mxgraph.aws4.group_aws_cloud;strokeColor=#AAB7B8;fillColor=none;verticalAlign=top;align=left;spacingLeft=30;fontColor=#AAB7B8;dashed=0;" vertex="1" parent="1">
          <mxGeometry x="66" y="154" width="754" height="430" as="geometry" />
        </mxCell>
        <mxCell id="3jvAYhcehoFHcsE9BArX-3" value="VPC" style="sketch=0;outlineConnect=0;gradientColor=none;html=1;whiteSpace=wrap;fontSize=12;fontStyle=0;shape=mxgraph.aws4.group;grIcon=mxgraph.aws4.group_vpc;strokeColor=#879196;fillColor=none;verticalAlign=top;align=left;spacingLeft=30;fontColor=#879196;dashed=0;" vertex="1" parent="1">
          <mxGeometry x="260" y="218.5" width="450" height="320" as="geometry" />
        </mxCell>
        <mxCell id="3jvAYhcehoFHcsE9BArX-23" style="rounded=0;orthogonalLoop=1;jettySize=auto;html=1;" edge="1" parent="1" source="3jvAYhcehoFHcsE9BArX-4" target="3jvAYhcehoFHcsE9BArX-21">
          <mxGeometry relative="1" as="geometry" />
        </mxCell>
        <mxCell id="3jvAYhcehoFHcsE9BArX-4" value="&lt;font style=&quot;font-size: 8px;&quot;&gt;Amazon API&lt;/font&gt;&lt;div&gt;&lt;font style=&quot;font-size: 8px;&quot;&gt;Gateway&lt;/font&gt;&lt;/div&gt;" style="sketch=0;points=[[0,0,0],[0.25,0,0],[0.5,0,0],[0.75,0,0],[1,0,0],[0,1,0],[0.25,1,0],[0.5,1,0],[0.75,1,0],[1,1,0],[0,0.25,0],[0,0.5,0],[0,0.75,0],[1,0.25,0],[1,0.5,0],[1,0.75,0]];outlineConnect=0;fontColor=#232F3E;fillColor=#8C4FFF;strokeColor=#ffffff;dashed=0;verticalLabelPosition=bottom;verticalAlign=top;align=center;html=1;fontSize=12;fontStyle=0;aspect=fixed;shape=mxgraph.aws4.resourceIcon;resIcon=mxgraph.aws4.api_gateway;" vertex="1" parent="1">
          <mxGeometry x="104" y="383.5" width="30" height="30" as="geometry" />
        </mxCell>
        <mxCell id="3jvAYhcehoFHcsE9BArX-5" value="&lt;font style=&quot;font-size: 8px;&quot;&gt;S3 front-end bucket&lt;/font&gt;" style="sketch=0;outlineConnect=0;fontColor=#232F3E;gradientColor=none;fillColor=#7AA116;strokeColor=none;dashed=0;verticalLabelPosition=bottom;verticalAlign=top;align=center;html=1;fontSize=12;fontStyle=0;aspect=fixed;pointerEvents=1;shape=mxgraph.aws4.bucket;" vertex="1" parent="1">
          <mxGeometry x="180" y="284" width="28.85" height="30" as="geometry" />
        </mxCell>
        <mxCell id="3jvAYhcehoFHcsE9BArX-10" style="edgeStyle=orthogonalEdgeStyle;rounded=0;orthogonalLoop=1;jettySize=auto;html=1;" edge="1" parent="1" source="3jvAYhcehoFHcsE9BArX-8" target="3jvAYhcehoFHcsE9BArX-4">
          <mxGeometry relative="1" as="geometry" />
        </mxCell>
        <mxCell id="3jvAYhcehoFHcsE9BArX-12" style="edgeStyle=orthogonalEdgeStyle;rounded=0;orthogonalLoop=1;jettySize=auto;html=1;strokeColor=default;endArrow=none;endFill=0;" edge="1" parent="1" source="3jvAYhcehoFHcsE9BArX-8" target="3jvAYhcehoFHcsE9BArX-11">
          <mxGeometry relative="1" as="geometry" />
        </mxCell>
        <mxCell id="3jvAYhcehoFHcsE9BArX-14" value="&lt;font color=&quot;#ff6666&quot; style=&quot;font-size: 8px;&quot;&gt;Public host&lt;/font&gt;" style="edgeLabel;html=1;align=center;verticalAlign=middle;resizable=0;points=[];" vertex="1" connectable="0" parent="3jvAYhcehoFHcsE9BArX-12">
          <mxGeometry x="0.5848" y="2" relative="1" as="geometry">
            <mxPoint x="2" y="18" as="offset" />
          </mxGeometry>
        </mxCell>
        <mxCell id="3jvAYhcehoFHcsE9BArX-37" style="edgeStyle=orthogonalEdgeStyle;rounded=0;orthogonalLoop=1;jettySize=auto;html=1;" edge="1" parent="1" source="3jvAYhcehoFHcsE9BArX-8" target="3jvAYhcehoFHcsE9BArX-5">
          <mxGeometry relative="1" as="geometry" />
        </mxCell>
        <mxCell id="3jvAYhcehoFHcsE9BArX-8" value="&lt;font style=&quot;font-size: 8px;&quot;&gt;Amazon&amp;nbsp;&lt;/font&gt;&lt;div&gt;&lt;font style=&quot;font-size: 8px;&quot;&gt;CloudFront&lt;/font&gt;&lt;/div&gt;" style="sketch=0;points=[[0,0,0],[0.25,0,0],[0.5,0,0],[0.75,0,0],[1,0,0],[0,1,0],[0.25,1,0],[0.5,1,0],[0.75,1,0],[1,1,0],[0,0.25,0],[0,0.5,0],[0,0.75,0],[1,0.25,0],[1,0.5,0],[1,0.75,0]];outlineConnect=0;fontColor=#232F3E;fillColor=#8C4FFF;strokeColor=#ffffff;dashed=0;verticalLabelPosition=bottom;verticalAlign=top;align=center;html=1;fontSize=12;fontStyle=0;aspect=fixed;shape=mxgraph.aws4.resourceIcon;resIcon=mxgraph.aws4.cloudfront;" vertex="1" parent="1">
          <mxGeometry x="102" y="282.5" width="32" height="32" as="geometry" />
        </mxCell>
        <mxCell id="3jvAYhcehoFHcsE9BArX-11" value="&lt;font style=&quot;font-size: 8px;&quot;&gt;Amazon&amp;nbsp;&lt;/font&gt;&lt;span style=&quot;font-size: 8px; background-color: initial;&quot;&gt;Route 53&lt;/span&gt;" style="sketch=0;points=[[0,0,0],[0.25,0,0],[0.5,0,0],[0.75,0,0],[1,0,0],[0,1,0],[0.25,1,0],[0.5,1,0],[0.75,1,0],[1,1,0],[0,0.25,0],[0,0.5,0],[0,0.75,0],[1,0.25,0],[1,0.5,0],[1,0.75,0]];outlineConnect=0;fontColor=#232F3E;fillColor=#8C4FFF;strokeColor=#ffffff;dashed=0;verticalLabelPosition=bottom;verticalAlign=top;align=center;html=1;fontSize=12;fontStyle=0;aspect=fixed;shape=mxgraph.aws4.resourceIcon;resIcon=mxgraph.aws4.route_53;" vertex="1" parent="1">
          <mxGeometry x="98" y="183.5" width="40" height="40" as="geometry" />
        </mxCell>
        <mxCell id="3jvAYhcehoFHcsE9BArX-13" style="edgeStyle=orthogonalEdgeStyle;rounded=0;orthogonalLoop=1;jettySize=auto;html=1;exitX=0.5;exitY=1;exitDx=0;exitDy=0;exitPerimeter=0;" edge="1" parent="1" source="3jvAYhcehoFHcsE9BArX-11" target="3jvAYhcehoFHcsE9BArX-11">
          <mxGeometry relative="1" as="geometry" />
        </mxCell>
        <mxCell id="3jvAYhcehoFHcsE9BArX-19" style="edgeStyle=orthogonalEdgeStyle;rounded=0;orthogonalLoop=1;jettySize=auto;html=1;" edge="1" parent="1" source="3jvAYhcehoFHcsE9BArX-17" target="3jvAYhcehoFHcsE9BArX-4">
          <mxGeometry relative="1" as="geometry" />
        </mxCell>
        <mxCell id="3jvAYhcehoFHcsE9BArX-17" value="Canal movil" style="sketch=0;points=[[0,0,0],[0.25,0,0],[0.5,0,0],[0.75,0,0],[1,0,0],[0,1,0],[0.25,1,0],[0.5,1,0],[0.75,1,0],[1,1,0],[0,0.25,0],[0,0.5,0],[0,0.75,0],[1,0.25,0],[1,0.5,0],[1,0.75,0]];outlineConnect=0;fontColor=#232F3E;fillColor=#E7157B;strokeColor=#ffffff;dashed=0;verticalLabelPosition=bottom;verticalAlign=top;align=center;html=1;fontSize=12;fontStyle=0;aspect=fixed;shape=mxgraph.aws4.resourceIcon;resIcon=mxgraph.aws4.mobile_application;" vertex="1" parent="1">
          <mxGeometry x="12.619999999999997" y="381.5" width="34" height="34" as="geometry" />
        </mxCell>
        <mxCell id="3jvAYhcehoFHcsE9BArX-20" style="edgeStyle=orthogonalEdgeStyle;rounded=0;orthogonalLoop=1;jettySize=auto;html=1;" edge="1" parent="1" source="3jvAYhcehoFHcsE9BArX-18" target="3jvAYhcehoFHcsE9BArX-8">
          <mxGeometry relative="1" as="geometry" />
        </mxCell>
        <mxCell id="3jvAYhcehoFHcsE9BArX-18" value="Canal web" style="verticalLabelPosition=bottom;aspect=fixed;html=1;shape=mxgraph.salesforce.web;" vertex="1" parent="1">
          <mxGeometry x="10" y="283.5" width="39.24" height="31" as="geometry" />
        </mxCell>
        <mxCell id="3jvAYhcehoFHcsE9BArX-24" style="edgeStyle=orthogonalEdgeStyle;rounded=0;orthogonalLoop=1;jettySize=auto;html=1;" edge="1" parent="1" source="3jvAYhcehoFHcsE9BArX-21" target="3jvAYhcehoFHcsE9BArX-22">
          <mxGeometry relative="1" as="geometry" />
        </mxCell>
        <mxCell id="3jvAYhcehoFHcsE9BArX-21" value="&lt;font style=&quot;font-size: 8px;&quot;&gt;Lambda Authorizer&lt;/font&gt;" style="outlineConnect=0;dashed=0;verticalLabelPosition=bottom;verticalAlign=top;align=center;html=1;shape=mxgraph.aws3.lambda_function;fillColor=#F58534;gradientColor=none;" vertex="1" parent="1">
          <mxGeometry x="190" y="443.5" width="30" height="30" as="geometry" />
        </mxCell>
        <mxCell id="3jvAYhcehoFHcsE9BArX-22" value="&lt;font style=&quot;font-size: 8px;&quot;&gt;DynamoDB&lt;/font&gt;" style="outlineConnect=0;dashed=0;verticalLabelPosition=bottom;verticalAlign=top;align=center;html=1;shape=mxgraph.aws3.dynamo_db;fillColor=#2E73B8;gradientColor=none;" vertex="1" parent="1">
          <mxGeometry x="187.5" y="523.5" width="35" height="30" as="geometry" />
        </mxCell>
        <mxCell id="3jvAYhcehoFHcsE9BArX-26" value="Public subnet" style="points=[[0,0],[0.25,0],[0.5,0],[0.75,0],[1,0],[1,0.25],[1,0.5],[1,0.75],[1,1],[0.75,1],[0.5,1],[0.25,1],[0,1],[0,0.75],[0,0.5],[0,0.25]];outlineConnect=0;gradientColor=none;html=1;whiteSpace=wrap;fontSize=12;fontStyle=0;container=1;pointerEvents=0;collapsible=0;recursiveResize=0;shape=mxgraph.aws4.group;grIcon=mxgraph.aws4.group_security_group;grStroke=0;strokeColor=#7AA116;fillColor=#F2F6E8;verticalAlign=top;align=left;spacingLeft=30;fontColor=#248814;dashed=0;" vertex="1" parent="1">
          <mxGeometry x="300" y="253.5" width="110" height="270" as="geometry" />
        </mxCell>
        <mxCell id="3jvAYhcehoFHcsE9BArX-27" value="&lt;font style=&quot;font-size: 8px;&quot;&gt;NAT gateway&lt;/font&gt;" style="sketch=0;outlineConnect=0;fontColor=#232F3E;gradientColor=none;fillColor=#8C4FFF;strokeColor=none;dashed=0;verticalLabelPosition=bottom;verticalAlign=top;align=center;html=1;fontSize=12;fontStyle=0;aspect=fixed;pointerEvents=1;shape=mxgraph.aws4.nat_gateway;" vertex="1" parent="3jvAYhcehoFHcsE9BArX-26">
          <mxGeometry x="40" y="186" width="34" height="34" as="geometry" />
        </mxCell>
        <mxCell id="3jvAYhcehoFHcsE9BArX-28" value="Private subnet" style="points=[[0,0],[0.25,0],[0.5,0],[0.75,0],[1,0],[1,0.25],[1,0.5],[1,0.75],[1,1],[0.75,1],[0.5,1],[0.25,1],[0,1],[0,0.75],[0,0.5],[0,0.25]];outlineConnect=0;gradientColor=none;html=1;whiteSpace=wrap;fontSize=12;fontStyle=0;container=1;pointerEvents=0;collapsible=0;recursiveResize=0;shape=mxgraph.aws4.group;grIcon=mxgraph.aws4.group_security_group;grStroke=0;strokeColor=#00A4A6;fillColor=#E6F6F7;verticalAlign=top;align=left;spacingLeft=30;fontColor=#147EBA;dashed=0;" vertex="1" parent="1">
          <mxGeometry x="425" y="253.5" width="275" height="270" as="geometry" />
        </mxCell>
        <mxCell id="3jvAYhcehoFHcsE9BArX-29" value="&lt;font style=&quot;font-size: 8px;&quot;&gt;Application Load&lt;/font&gt;&lt;div&gt;&lt;font style=&quot;font-size: 8px;&quot;&gt;&amp;nbsp;Balancer&lt;/font&gt;&lt;/div&gt;" style="sketch=0;outlineConnect=0;fontColor=#232F3E;gradientColor=none;fillColor=#8C4FFF;strokeColor=none;dashed=0;verticalLabelPosition=bottom;verticalAlign=top;align=center;html=1;fontSize=12;fontStyle=0;aspect=fixed;pointerEvents=1;shape=mxgraph.aws4.application_load_balancer;" vertex="1" parent="3jvAYhcehoFHcsE9BArX-28">
          <mxGeometry x="15" y="126" width="34" height="34" as="geometry" />
        </mxCell>
        <mxCell id="3jvAYhcehoFHcsE9BArX-30" value="" style="sketch=0;outlineConnect=0;fontColor=#232F3E;gradientColor=none;fillColor=#C925D1;strokeColor=none;dashed=0;verticalLabelPosition=bottom;verticalAlign=top;align=center;html=1;fontSize=12;fontStyle=0;aspect=fixed;pointerEvents=1;shape=mxgraph.aws4.rds_instance;" vertex="1" parent="3jvAYhcehoFHcsE9BArX-28">
          <mxGeometry x="173" y="66.5" width="34" height="34" as="geometry" />
        </mxCell>
        <mxCell id="3jvAYhcehoFHcsE9BArX-31" value="Auto Scaling group" style="points=[[0,0],[0.25,0],[0.5,0],[0.75,0],[1,0],[1,0.25],[1,0.5],[1,0.75],[1,1],[0.75,1],[0.5,1],[0.25,1],[0,1],[0,0.75],[0,0.5],[0,0.25]];outlineConnect=0;gradientColor=none;html=1;whiteSpace=wrap;fontSize=12;fontStyle=0;container=1;pointerEvents=0;collapsible=0;recursiveResize=0;shape=mxgraph.aws4.groupCenter;grIcon=mxgraph.aws4.group_auto_scaling_group;grStroke=1;strokeColor=#D86613;fillColor=none;verticalAlign=top;align=center;fontColor=#D86613;dashed=1;spacingTop=25;" vertex="1" parent="3jvAYhcehoFHcsE9BArX-28">
          <mxGeometry x="125" y="6" width="130" height="130" as="geometry" />
        </mxCell>
        <mxCell id="3jvAYhcehoFHcsE9BArX-33" style="rounded=0;orthogonalLoop=1;jettySize=auto;html=1;" edge="1" parent="1" source="3jvAYhcehoFHcsE9BArX-4" target="3jvAYhcehoFHcsE9BArX-29">
          <mxGeometry relative="1" as="geometry" />
        </mxCell>
        <mxCell id="3jvAYhcehoFHcsE9BArX-34" value="Region" style="points=[[0,0],[0.25,0],[0.5,0],[0.75,0],[1,0],[1,0.25],[1,0.5],[1,0.75],[1,1],[0.75,1],[0.5,1],[0.25,1],[0,1],[0,0.75],[0,0.5],[0,0.25]];outlineConnect=0;gradientColor=none;html=1;whiteSpace=wrap;fontSize=12;fontStyle=0;container=1;pointerEvents=0;collapsible=0;recursiveResize=0;shape=mxgraph.aws4.group;grIcon=mxgraph.aws4.group_region;strokeColor=#00A4A6;fillColor=none;verticalAlign=top;align=left;spacingLeft=30;fontColor=#147EBA;dashed=1;" vertex="1" parent="1">
          <mxGeometry x="244" y="160" width="486" height="420" as="geometry" />
        </mxCell>
        <mxCell id="3jvAYhcehoFHcsE9BArX-43" value="&lt;font style=&quot;font-size: 8px;&quot;&gt;AWS Lambda Function&lt;/font&gt;" style="outlineConnect=0;dashed=0;verticalLabelPosition=bottom;verticalAlign=top;align=center;html=1;shape=mxgraph.aws3.lambda_function;fillColor=#F58534;gradientColor=none;" vertex="1" parent="3jvAYhcehoFHcsE9BArX-34">
          <mxGeometry x="234" y="135.5" width="34" height="32.5" as="geometry" />
        </mxCell>
        <mxCell id="3jvAYhcehoFHcsE9BArX-45" value="Availability zone" style="sketch=0;outlineConnect=0;gradientColor=none;html=1;whiteSpace=wrap;fontSize=12;fontStyle=0;shape=mxgraph.aws4.group;grIcon=mxgraph.aws4.group_availability_zone;strokeColor=#545B64;fillColor=none;verticalAlign=top;align=left;spacingLeft=30;fontColor=#545B64;dashed=1;" vertex="1" parent="3jvAYhcehoFHcsE9BArX-34">
          <mxGeometry x="47" y="30" width="410" height="370" as="geometry" />
        </mxCell>
        <mxCell id="3jvAYhcehoFHcsE9BArX-35" value="&lt;font style=&quot;font-size: 8px;&quot;&gt;Amazon CloudWatch&lt;/font&gt;" style="sketch=0;points=[[0,0,0],[0.25,0,0],[0.5,0,0],[0.75,0,0],[1,0,0],[0,1,0],[0.25,1,0],[0.5,1,0],[0.75,1,0],[1,1,0],[0,0.25,0],[0,0.5,0],[0,0.75,0],[1,0.25,0],[1,0.5,0],[1,0.75,0]];points=[[0,0,0],[0.25,0,0],[0.5,0,0],[0.75,0,0],[1,0,0],[0,1,0],[0.25,1,0],[0.5,1,0],[0.75,1,0],[1,1,0],[0,0.25,0],[0,0.5,0],[0,0.75,0],[1,0.25,0],[1,0.5,0],[1,0.75,0]];outlineConnect=0;fontColor=#232F3E;fillColor=#E7157B;strokeColor=#ffffff;dashed=0;verticalLabelPosition=bottom;verticalAlign=top;align=center;html=1;fontSize=12;fontStyle=0;aspect=fixed;shape=mxgraph.aws4.resourceIcon;resIcon=mxgraph.aws4.cloudwatch_2;" vertex="1" parent="1">
          <mxGeometry x="763" y="210" width="37" height="37" as="geometry" />
        </mxCell>
        <mxCell id="3jvAYhcehoFHcsE9BArX-36" value="&lt;font style=&quot;font-size: 8px;&quot;&gt;Amazon CloudTrail&lt;/font&gt;" style="sketch=0;points=[[0,0,0],[0.25,0,0],[0.5,0,0],[0.75,0,0],[1,0,0],[0,1,0],[0.25,1,0],[0.5,1,0],[0.75,1,0],[1,1,0],[0,0.25,0],[0,0.5,0],[0,0.75,0],[1,0.25,0],[1,0.5,0],[1,0.75,0]];points=[[0,0,0],[0.25,0,0],[0.5,0,0],[0.75,0,0],[1,0,0],[0,1,0],[0.25,1,0],[0.5,1,0],[0.75,1,0],[1,1,0],[0,0.25,0],[0,0.5,0],[0,0.75,0],[1,0.25,0],[1,0.5,0],[1,0.75,0]];outlineConnect=0;fontColor=#232F3E;fillColor=#E7157B;strokeColor=#ffffff;dashed=0;verticalLabelPosition=bottom;verticalAlign=top;align=center;html=1;fontSize=12;fontStyle=0;aspect=fixed;shape=mxgraph.aws4.resourceIcon;resIcon=mxgraph.aws4.cloudtrail;" vertex="1" parent="1">
          <mxGeometry x="764" y="280" width="36" height="36" as="geometry" />
        </mxCell>
        <mxCell id="3jvAYhcehoFHcsE9BArX-38" style="rounded=0;orthogonalLoop=1;jettySize=auto;html=1;entryX=0.75;entryY=0;entryDx=0;entryDy=0;entryPerimeter=0;" edge="1" parent="1" source="3jvAYhcehoFHcsE9BArX-5" target="3jvAYhcehoFHcsE9BArX-4">
          <mxGeometry relative="1" as="geometry" />
        </mxCell>
        <mxCell id="3jvAYhcehoFHcsE9BArX-39" value="&lt;font style=&quot;font-size: 8px;&quot;&gt;AWS Config&lt;/font&gt;" style="sketch=0;points=[[0,0,0],[0.25,0,0],[0.5,0,0],[0.75,0,0],[1,0,0],[0,1,0],[0.25,1,0],[0.5,1,0],[0.75,1,0],[1,1,0],[0,0.25,0],[0,0.5,0],[0,0.75,0],[1,0.25,0],[1,0.5,0],[1,0.75,0]];points=[[0,0,0],[0.25,0,0],[0.5,0,0],[0.75,0,0],[1,0,0],[0,1,0],[0.25,1,0],[0.5,1,0],[0.75,1,0],[1,1,0],[0,0.25,0],[0,0.5,0],[0,0.75,0],[1,0.25,0],[1,0.5,0],[1,0.75,0]];outlineConnect=0;fontColor=#232F3E;fillColor=#E7157B;strokeColor=#ffffff;dashed=0;verticalLabelPosition=bottom;verticalAlign=top;align=center;html=1;fontSize=12;fontStyle=0;aspect=fixed;shape=mxgraph.aws4.resourceIcon;resIcon=mxgraph.aws4.config;" vertex="1" parent="1">
          <mxGeometry x="764.75" y="350" width="34.5" height="34.5" as="geometry" />
        </mxCell>
        <mxCell id="3jvAYhcehoFHcsE9BArX-41" value="&lt;font style=&quot;font-size: 8px;&quot;&gt;Amazon GuardDuty&lt;/font&gt;" style="sketch=0;points=[[0,0,0],[0.25,0,0],[0.5,0,0],[0.75,0,0],[1,0,0],[0,1,0],[0.25,1,0],[0.5,1,0],[0.75,1,0],[1,1,0],[0,0.25,0],[0,0.5,0],[0,0.75,0],[1,0.25,0],[1,0.5,0],[1,0.75,0]];outlineConnect=0;fontColor=#232F3E;fillColor=#DD344C;strokeColor=#ffffff;dashed=0;verticalLabelPosition=bottom;verticalAlign=top;align=center;html=1;fontSize=12;fontStyle=0;aspect=fixed;shape=mxgraph.aws4.resourceIcon;resIcon=mxgraph.aws4.guardduty;" vertex="1" parent="1">
          <mxGeometry x="764.75" y="419.5" width="30.5" height="30.5" as="geometry" />
        </mxCell>
        <mxCell id="3jvAYhcehoFHcsE9BArX-42" value="&lt;font style=&quot;font-size: 8px;&quot;&gt;Alarm&lt;/font&gt;" style="sketch=0;outlineConnect=0;fontColor=#232F3E;gradientColor=none;fillColor=#E7157B;strokeColor=none;dashed=0;verticalLabelPosition=bottom;verticalAlign=top;align=center;html=1;fontSize=12;fontStyle=0;aspect=fixed;pointerEvents=1;shape=mxgraph.aws4.alarm;" vertex="1" parent="1">
          <mxGeometry x="764" y="483.5" width="30" height="30" as="geometry" />
        </mxCell>
        <mxCell id="3jvAYhcehoFHcsE9BArX-32" style="edgeStyle=orthogonalEdgeStyle;rounded=0;orthogonalLoop=1;jettySize=auto;html=1;" edge="1" parent="1" source="3jvAYhcehoFHcsE9BArX-29" target="3jvAYhcehoFHcsE9BArX-43">
          <mxGeometry relative="1" as="geometry" />
        </mxCell>
        <mxCell id="3jvAYhcehoFHcsE9BArX-44" style="edgeStyle=orthogonalEdgeStyle;rounded=0;orthogonalLoop=1;jettySize=auto;html=1;" edge="1" parent="1" source="3jvAYhcehoFHcsE9BArX-43" target="3jvAYhcehoFHcsE9BArX-30">
          <mxGeometry relative="1" as="geometry" />
        </mxCell>
      </root>
    </mxGraphModel>
  </diagram>
</mxfile>
